<?xml version="1.0" encoding="UTF-8" standalone="no"?>
<!DOCTYPE svg PUBLIC "-//W3C//DTD SVG 1.1//EN"
 "http://www.w3.org/Graphics/SVG/1.1/DTD/svg11.dtd">
<!-- Generated by graphviz version 2.43.0 (0)
 -->
<!-- Title: %3 Pages: 1 -->
<svg width="469pt" height="98pt"
 viewBox="0.00 0.00 468.89 98.00" xmlns="http://www.w3.org/2000/svg" xmlns:xlink="http://www.w3.org/1999/xlink">
<g id="graph0" class="graph" transform="scale(1 1) rotate(0) translate(4 94)">
<title>%3</title>
<polygon fill="white" stroke="transparent" points="-4,4 -4,-94 464.89,-94 464.89,4 -4,4"/>
<!-- M0 -->
<g id="node1" class="node">
<title>M0</title>
<polygon fill="none" stroke="black" points="145,-63 91,-63 91,-27 145,-27 145,-63"/>
<text text-anchor="middle" x="118" y="-41.3" font-family="Times,serif" font-size="14.00">halts</text>
</g>
<!-- YES -->
<g id="node2" class="node">
<title>YES</title>
<ellipse fill="none" stroke="black" cx="319.9" cy="-72" rx="29.8" ry="18"/>
<text text-anchor="middle" x="319.9" y="-68.3" font-family="Times,serif" font-size="14.00">YES</text>
</g>
<!-- M0&#45;&gt;YES -->
<g id="edge3" class="edge">
<title>M0&#45;&gt;YES</title>
<path fill="none" stroke="black" d="M145.23,-58.5C145.23,-58.5 290.07,-58.5 290.07,-58.5"/>
<polygon fill="black" stroke="black" points="290.07,-62 300.07,-58.5 290.07,-55 290.07,-62"/>
<text text-anchor="middle" x="217.5" y="-71.8" font-family="Times,serif" font-size="14.00">if M halts on M</text>
</g>
<!-- NO -->
<g id="node3" class="node">
<title>NO</title>
<ellipse fill="none" stroke="black" cx="319.9" cy="-18" rx="27" ry="18"/>
<text text-anchor="middle" x="319.9" y="-14.3" font-family="Times,serif" font-size="14.00">NO</text>
</g>
<!-- M0&#45;&gt;NO -->
<g id="edge4" class="edge">
<title>M0&#45;&gt;NO</title>
<path fill="none" stroke="black" d="M145.23,-31.5C145.23,-31.5 292.02,-31.5 292.02,-31.5"/>
<polygon fill="black" stroke="black" points="292.02,-35 302.02,-31.5 292.02,-28 292.02,-35"/>
<text text-anchor="middle" x="217.5" y="-29.8" font-family="Times,serif" font-size="14.00">otherwise</text>
</g>
<!-- L -->
<g id="node5" class="node">
<title>L</title>
<ellipse fill="none" stroke="black" cx="423.84" cy="-72" rx="37.09" ry="18"/>
<text text-anchor="middle" x="423.84" y="-68.3" font-family="Times,serif" font-size="14.00">loop()</text>
</g>
<!-- YES&#45;&gt;L -->
<g id="edge5" class="edge">
<title>YES&#45;&gt;L</title>
<path fill="none" stroke="black" d="M349.96,-72C349.96,-72 376.45,-72 376.45,-72"/>
<polygon fill="black" stroke="black" points="376.45,-75.5 386.45,-72 376.45,-68.5 376.45,-75.5"/>
</g>
<!-- HALT -->
<g id="node6" class="node">
<title>HALT</title>
<ellipse fill="none" stroke="black" cx="423.84" cy="-18" rx="36.29" ry="18"/>
<text text-anchor="middle" x="423.84" y="-14.3" font-family="Times,serif" font-size="14.00">HALT</text>
</g>
<!-- NO&#45;&gt;HALT -->
<g id="edge6" class="edge">
<title>NO&#45;&gt;HALT</title>
<path fill="none" stroke="black" d="M346.94,-18C346.94,-18 377.16,-18 377.16,-18"/>
<polygon fill="black" stroke="black" points="377.16,-21.5 387.16,-18 377.16,-14.5 377.16,-21.5"/>
</g>
<!-- M -->
<g id="node4" class="node">
<title>M</title>
<ellipse fill="none" stroke="black" cx="27" cy="-45" rx="27" ry="18"/>
<text text-anchor="middle" x="27" y="-41.3" font-family="Times,serif" font-size="14.00">M</text>
</g>
<!-- M&#45;&gt;M0 -->
<g id="edge1" class="edge">
<title>M&#45;&gt;M0</title>
<path fill="none" stroke="black" d="M52.83,-39C52.83,-39 80.83,-39 80.83,-39"/>
<polygon fill="black" stroke="black" points="80.83,-42.5 90.83,-39 80.83,-35.5 80.83,-42.5"/>
</g>
<!-- M&#45;&gt;M0 -->
<g id="edge2" class="edge">
<title>M&#45;&gt;M0</title>
<path fill="none" stroke="black" d="M52.83,-51C52.83,-51 80.83,-51 80.83,-51"/>
<polygon fill="black" stroke="black" points="80.83,-54.5 90.83,-51 80.83,-47.5 80.83,-54.5"/>
</g>
</g>
</svg>
