<?xml version="1.0" encoding="UTF-8" standalone="no"?>
<!DOCTYPE svg PUBLIC "-//W3C//DTD SVG 1.1//EN"
 "http://www.w3.org/Graphics/SVG/1.1/DTD/svg11.dtd">
<!-- Generated by graphviz version 2.43.0 (0)
 -->
<!-- Title: %3 Pages: 1 -->
<svg width="342pt" height="104pt"
 viewBox="0.00 0.00 342.09 104.00" xmlns="http://www.w3.org/2000/svg" xmlns:xlink="http://www.w3.org/1999/xlink">
<g id="graph0" class="graph" transform="scale(1 1) rotate(0) translate(4 100)">
<title>%3</title>
<polygon fill="white" stroke="transparent" points="-4,4 -4,-100 338.09,-100 338.09,4 -4,4"/>
<!-- M -->
<g id="node1" class="node">
<title>M</title>
<ellipse fill="none" stroke="black" cx="20.15" cy="-75.85" rx="20.3" ry="20.3"/>
<text text-anchor="middle" x="20.15" y="-72.15" font-family="Times,serif" font-size="14.00">M</text>
</g>
<!-- M0 -->
<g id="node3" class="node">
<title>M0</title>
<polygon fill="none" stroke="black" points="131.3,-64.85 77.3,-64.85 77.3,-28.85 131.3,-28.85 131.3,-64.85"/>
<text text-anchor="middle" x="104.3" y="-43.15" font-family="Times,serif" font-size="14.00">halts</text>
</g>
<!-- M&#45;&gt;M0 -->
<g id="edge1" class="edge">
<title>M&#45;&gt;M0</title>
<path fill="none" stroke="black" d="M33.3,-60.27C33.3,-60.27 66.98,-60.27 66.98,-60.27"/>
<polygon fill="black" stroke="black" points="66.98,-63.77 76.98,-60.27 66.98,-56.77 66.98,-63.77"/>
</g>
<!-- w -->
<g id="node2" class="node">
<title>w</title>
<ellipse fill="none" stroke="black" cx="20.15" cy="-18.85" rx="18.7" ry="18.7"/>
<text text-anchor="middle" x="20.15" y="-15.15" font-family="Times,serif" font-size="14.00">w</text>
</g>
<!-- w&#45;&gt;M0 -->
<g id="edge2" class="edge">
<title>w&#45;&gt;M0</title>
<path fill="none" stroke="black" d="M32.56,-33.27C32.56,-33.27 67.21,-33.27 67.21,-33.27"/>
<polygon fill="black" stroke="black" points="67.21,-36.77 77.21,-33.27 67.21,-29.77 67.21,-36.77"/>
</g>
<!-- YES -->
<g id="node4" class="node">
<title>YES</title>
<ellipse fill="none" stroke="black" cx="304.19" cy="-73.85" rx="29.8" ry="18"/>
<text text-anchor="middle" x="304.19" y="-70.15" font-family="Times,serif" font-size="14.00">YES</text>
</g>
<!-- M0&#45;&gt;YES -->
<g id="edge3" class="edge">
<title>M0&#45;&gt;YES</title>
<path fill="none" stroke="black" d="M131.67,-60.35C131.67,-60.35 274.38,-60.35 274.38,-60.35"/>
<polygon fill="black" stroke="black" points="274.38,-63.85 284.38,-60.35 274.38,-56.85 274.38,-63.85"/>
<text text-anchor="middle" x="202.8" y="-77.65" font-family="Times,serif" font-size="14.00">if M halts on w</text>
</g>
<!-- NO -->
<g id="node5" class="node">
<title>NO</title>
<ellipse fill="none" stroke="black" cx="304.19" cy="-19.85" rx="27" ry="18"/>
<text text-anchor="middle" x="304.19" y="-16.15" font-family="Times,serif" font-size="14.00">NO</text>
</g>
<!-- M0&#45;&gt;NO -->
<g id="edge4" class="edge">
<title>M0&#45;&gt;NO</title>
<path fill="none" stroke="black" d="M131.67,-33.35C131.67,-33.35 276.31,-33.35 276.31,-33.35"/>
<polygon fill="black" stroke="black" points="276.31,-36.85 286.31,-33.35 276.31,-29.85 276.31,-36.85"/>
<text text-anchor="middle" x="202.8" y="-23.65" font-family="Times,serif" font-size="14.00">otherwise</text>
</g>
</g>
</svg>
