<?xml version="1.0" encoding="UTF-8" standalone="no"?>
<!DOCTYPE svg PUBLIC "-//W3C//DTD SVG 1.1//EN"
 "http://www.w3.org/Graphics/SVG/1.1/DTD/svg11.dtd">
<!-- Generated by graphviz version 2.43.0 (0)
 -->
<!-- Title: %3 Pages: 1 -->
<svg width="665pt" height="309pt"
 viewBox="0.00 0.00 665.00 309.50" xmlns="http://www.w3.org/2000/svg" xmlns:xlink="http://www.w3.org/1999/xlink">
<g id="graph0" class="graph" transform="scale(1 1) rotate(0) translate(4 305.5)">
<title>%3</title>
<polygon fill="white" stroke="transparent" points="-4,4 -4,-305.5 661,-305.5 661,4 -4,4"/>
<g id="clust1" class="cluster">
<title>clusterTape</title>
<polygon fill="none" stroke="black" points="8,-8 8,-60 384,-60 384,-8 8,-8"/>
</g>
<g id="clust3" class="cluster">
<title>clusterControl</title>
<polygon fill="none" stroke="black" points="29,-80 29,-293.5 649,-293.5 649,-80 29,-80"/>
</g>
<g id="clust4" class="cluster">
<title>clusterStates</title>
<polygon fill="none" stroke="black" points="296,-224.75 296,-284.75 641,-284.75 641,-224.75 296,-224.75"/>
</g>
<g id="clust6" class="cluster">
<title>clusterLetters</title>
<polygon fill="none" stroke="black" points="37,-224 37,-285.5 288,-285.5 288,-224 37,-224"/>
</g>
<!-- A -->
<g id="node1" class="node">
<title>A</title>
<polygon fill="none" stroke="black" points="52,-52 16,-52 16,-16 52,-16 52,-52"/>
<text text-anchor="middle" x="34" y="-30.3" font-family="Times,serif" font-size="14.00">&gt;</text>
</g>
<!-- B -->
<g id="node2" class="node">
<title>B</title>
<polygon fill="none" stroke="black" points="106,-52 70,-52 70,-16 106,-16 106,-52"/>
<text text-anchor="middle" x="88" y="-30.3" font-family="Times,serif" font-size="14.00">b</text>
</g>
<!-- A&#45;&gt;B -->
<!-- C -->
<g id="node3" class="node">
<title>C</title>
<polygon fill="none" stroke="black" points="160,-52 124,-52 124,-16 160,-16 160,-52"/>
<text text-anchor="middle" x="142" y="-30.3" font-family="Times,serif" font-size="14.00">b</text>
</g>
<!-- B&#45;&gt;C -->
<!-- D -->
<g id="node4" class="node">
<title>D</title>
<polygon fill="none" stroke="black" points="214,-52 178,-52 178,-16 214,-16 214,-52"/>
<text text-anchor="middle" x="196" y="-30.3" font-family="Times,serif" font-size="14.00">b</text>
</g>
<!-- C&#45;&gt;D -->
<!-- E -->
<g id="node5" class="node">
<title>E</title>
<polygon fill="none" stroke="black" points="268,-52 232,-52 232,-16 268,-16 268,-52"/>
<text text-anchor="middle" x="250" y="-30.3" font-family="Times,serif" font-size="14.00">_ </text>
</g>
<!-- D&#45;&gt;E -->
<!-- F -->
<g id="node6" class="node">
<title>F</title>
<polygon fill="none" stroke="black" points="322,-52 286,-52 286,-16 322,-16 322,-52"/>
<text text-anchor="middle" x="304" y="-30.3" font-family="Times,serif" font-size="14.00">_ </text>
</g>
<!-- E&#45;&gt;F -->
<!-- G -->
<g id="node7" class="node">
<title>G</title>
<polygon fill="none" stroke="black" points="376,-52 340,-52 340,-16 376,-16 376,-52"/>
<text text-anchor="middle" x="358" y="-30.3" font-family="Times,serif" font-size="14.00">_ </text>
</g>
<!-- F&#45;&gt;G -->
<!-- ls -->
<g id="node8" class="node">
<title>ls</title>
<ellipse fill="none" stroke="black" cx="323" cy="-254.75" rx="18.7" ry="18.7"/>
<text text-anchor="middle" x="323" y="-251.05" font-family="Times,serif" font-size="14.00">&gt;</text>
</g>
<!-- la -->
<g id="node9" class="node">
<title>la</title>
<ellipse fill="none" stroke="black" cx="378" cy="-254.75" rx="18" ry="18"/>
<text text-anchor="middle" x="378" y="-251.05" font-family="Times,serif" font-size="14.00">a</text>
</g>
<!-- ls&#45;&gt;la -->
<!-- lb -->
<g id="node10" class="node">
<title>lb</title>
<ellipse fill="none" stroke="black" cx="432" cy="-254.75" rx="18" ry="18"/>
<text text-anchor="middle" x="432" y="-251.05" font-family="Times,serif" font-size="14.00">b</text>
</g>
<!-- la&#45;&gt;lb -->
<!-- le -->
<g id="node11" class="node">
<title>le</title>
<ellipse fill="none" stroke="black" cx="490" cy="-254.75" rx="18" ry="18"/>
<ellipse fill="none" stroke="black" cx="490" cy="-254.75" rx="22" ry="22"/>
<text text-anchor="middle" x="490" y="-251.05" font-family="Times,serif" font-size="14.00">_</text>
</g>
<!-- lb&#45;&gt;le -->
<!-- ll -->
<g id="node12" class="node">
<title>ll</title>
<ellipse fill="none" stroke="black" cx="551" cy="-254.75" rx="21.4" ry="21.4"/>
<text text-anchor="middle" x="551" y="-251.05" font-family="Times,serif" font-size="14.00">&lt;&#45;</text>
</g>
<!-- le&#45;&gt;ll -->
<!-- R -->
<g id="node18" class="node">
<title>R</title>
<polygon fill="none" stroke="black" points="445,-196 389,-196 389,-160 445,-160 445,-196"/>
<text text-anchor="middle" x="417" y="-174.3" font-family="Times,serif" font-size="14.00">Rules</text>
</g>
<!-- le&#45;&gt;R -->
<g id="edge18" class="edge">
<title>le&#45;&gt;R</title>
<path fill="none" stroke="black" d="M474.87,-238.26C465.01,-228.16 451.92,-214.76 440.69,-203.26"/>
<polygon fill="black" stroke="black" points="443.12,-200.74 433.63,-196.03 438.12,-205.63 443.12,-200.74"/>
</g>
<!-- lr -->
<g id="node13" class="node">
<title>lr</title>
<ellipse fill="none" stroke="black" cx="612" cy="-254.75" rx="21.4" ry="21.4"/>
<text text-anchor="middle" x="612" y="-251.05" font-family="Times,serif" font-size="14.00">&#45;&gt;</text>
</g>
<!-- ll&#45;&gt;lr -->
<!-- S1 -->
<g id="node14" class="node">
<title>S1</title>
<ellipse fill="none" stroke="black" cx="68" cy="-254.75" rx="23" ry="23"/>
<text text-anchor="middle" x="68" y="-251.05" font-family="Times,serif" font-size="14.00">S1</text>
</g>
<!-- S2 -->
<g id="node15" class="node">
<title>S2</title>
<ellipse fill="none" stroke="black" cx="131" cy="-254.75" rx="23" ry="23"/>
<text text-anchor="middle" x="131" y="-251.05" font-family="Times,serif" font-size="14.00">S2</text>
</g>
<!-- S1&#45;&gt;S2 -->
<!-- Y -->
<g id="node16" class="node">
<title>Y</title>
<polygon fill="none" stroke="black" points="226,-272.75 176,-272.75 172,-268.75 172,-236.75 222,-236.75 226,-240.75 226,-272.75"/>
<polyline fill="none" stroke="black" points="222,-268.75 172,-268.75 "/>
<polyline fill="none" stroke="black" points="222,-268.75 222,-236.75 "/>
<polyline fill="none" stroke="black" points="222,-268.75 226,-272.75 "/>
<text text-anchor="middle" x="199" y="-251.05" font-family="Times,serif" font-size="14.00">Y</text>
</g>
<!-- S2&#45;&gt;Y -->
<!-- N -->
<g id="node17" class="node">
<title>N</title>
<polygon fill="none" stroke="black" points="280,-272.75 244,-272.75 244,-236.75 280,-236.75 280,-272.75"/>
<text text-anchor="middle" x="262" y="-251.05" font-family="Times,serif" font-size="14.00">N</text>
</g>
<!-- Y&#45;&gt;N -->
<!-- Y&#45;&gt;R -->
<g id="edge19" class="edge">
<title>Y&#45;&gt;R</title>
<path fill="none" stroke="black" d="M216.56,-236.58C222.1,-231.93 228.48,-227.28 235,-224 281.37,-200.65 340.61,-188.93 378.68,-183.41"/>
<polygon fill="black" stroke="black" points="379.4,-186.84 388.83,-182.01 378.45,-179.91 379.4,-186.84"/>
</g>
<!-- X -->
<g id="node20" class="node">
<title>X</title>
<text text-anchor="middle" x="353" y="-102.3" font-family="Times,serif" font-size="14.00">(Y, _) ==&gt; undefined</text>
</g>
<!-- R&#45;&gt;X -->
<!-- H -->
<g id="node21" class="node">
<title>H</title>
<text text-anchor="middle" x="482" y="-102.3" font-family="Times,serif" font-size="14.00">HALT</text>
</g>
<!-- R&#45;&gt;H -->
<g id="edge20" class="edge">
<title>R&#45;&gt;H</title>
<path fill="none" stroke="black" d="M433.07,-159.7C440.94,-151.22 450.56,-140.86 459.17,-131.58"/>
<polygon fill="black" stroke="black" points="461.88,-133.81 466.12,-124.1 456.75,-129.05 461.88,-133.81"/>
</g>
<!-- Z -->
<g id="node19" class="node">
<title>Z</title>
<ellipse fill="black" stroke="black" cx="250" cy="-106" rx="1.8" ry="1.8"/>
</g>
<!-- Z&#45;&gt;E -->
<g id="edge17" class="edge">
<title>Z&#45;&gt;E</title>
<path fill="none" stroke="black" d="M250,-104.01C250,-99.41 250,-79.64 250,-62.44"/>
<polygon fill="black" stroke="black" points="253.5,-62.21 250,-52.21 246.5,-62.21 253.5,-62.21"/>
</g>
<!-- Z&#45;&gt;X -->
<!-- out -->
<g id="node22" class="node">
<title>out</title>
<text text-anchor="middle" x="144" y="-102.3" font-family="Times,serif" font-size="14.00">output: Y, &quot;bbb&quot;</text>
</g>
</g>
</svg>
