<?xml version="1.0" encoding="UTF-8" standalone="no"?>
<!DOCTYPE svg PUBLIC "-//W3C//DTD SVG 1.1//EN"
 "http://www.w3.org/Graphics/SVG/1.1/DTD/svg11.dtd">
<!-- Generated by graphviz version 2.43.0 (0)
 -->
<!-- Title: %3 Pages: 1 -->
<svg width="642pt" height="317pt"
 viewBox="0.00 0.00 642.00 317.50" xmlns="http://www.w3.org/2000/svg" xmlns:xlink="http://www.w3.org/1999/xlink">
<g id="graph0" class="graph" transform="scale(1 1) rotate(0) translate(4 313.5)">
<title>%3</title>
<polygon fill="white" stroke="transparent" points="-4,4 -4,-313.5 638,-313.5 638,4 -4,4"/>
<g id="clust1" class="cluster">
<title>clusterTape</title>
<polygon fill="none" stroke="black" points="8,-8 8,-60 384,-60 384,-8 8,-8"/>
</g>
<g id="clust3" class="cluster">
<title>clusterControl</title>
<polygon fill="none" stroke="black" points="16,-80 16,-301.5 626,-301.5 626,-80 16,-80"/>
</g>
<g id="clust4" class="cluster">
<title>clusterStates</title>
<polygon fill="none" stroke="black" points="273,-227.9 273,-289.6 618,-289.6 618,-227.9 273,-227.9"/>
</g>
<g id="clust6" class="cluster">
<title>clusterLetters</title>
<polygon fill="none" stroke="black" points="24,-224 24,-293.5 265,-293.5 265,-224 24,-224"/>
</g>
<!-- A -->
<g id="node1" class="node">
<title>A</title>
<polygon fill="none" stroke="black" points="52,-52 16,-52 16,-16 52,-16 52,-52"/>
<text text-anchor="middle" x="34" y="-30.3" font-family="Times,serif" font-size="14.00">&gt;</text>
</g>
<!-- B -->
<g id="node2" class="node">
<title>B</title>
<polygon fill="none" stroke="black" points="106,-52 70,-52 70,-16 106,-16 106,-52"/>
<text text-anchor="middle" x="88" y="-30.3" font-family="Times,serif" font-size="14.00">a</text>
</g>
<!-- A&#45;&gt;B -->
<!-- C -->
<g id="node3" class="node">
<title>C</title>
<polygon fill="none" stroke="black" points="160,-52 124,-52 124,-16 160,-16 160,-52"/>
<text text-anchor="middle" x="142" y="-30.3" font-family="Times,serif" font-size="14.00">a</text>
</g>
<!-- B&#45;&gt;C -->
<!-- D -->
<g id="node4" class="node">
<title>D</title>
<polygon fill="none" stroke="black" points="214,-52 178,-52 178,-16 214,-16 214,-52"/>
<text text-anchor="middle" x="196" y="-30.3" font-family="Times,serif" font-size="14.00">a</text>
</g>
<!-- C&#45;&gt;D -->
<!-- E -->
<g id="node5" class="node">
<title>E</title>
<polygon fill="none" stroke="black" points="268,-52 232,-52 232,-16 268,-16 268,-52"/>
<text text-anchor="middle" x="250" y="-30.3" font-family="Times,serif" font-size="14.00">_ </text>
</g>
<!-- D&#45;&gt;E -->
<!-- F -->
<g id="node6" class="node">
<title>F</title>
<polygon fill="none" stroke="black" points="322,-52 286,-52 286,-16 322,-16 322,-52"/>
<text text-anchor="middle" x="304" y="-30.3" font-family="Times,serif" font-size="14.00">_ </text>
</g>
<!-- E&#45;&gt;F -->
<!-- G -->
<g id="node7" class="node">
<title>G</title>
<polygon fill="none" stroke="black" points="376,-52 340,-52 340,-16 376,-16 376,-52"/>
<text text-anchor="middle" x="358" y="-30.3" font-family="Times,serif" font-size="14.00">_ </text>
</g>
<!-- F&#45;&gt;G -->
<!-- ls -->
<g id="node8" class="node">
<title>ls</title>
<ellipse fill="none" stroke="black" cx="304" cy="-258.75" rx="18.72" ry="18.72"/>
<ellipse fill="none" stroke="black" cx="304" cy="-258.75" rx="22.7" ry="22.7"/>
<text text-anchor="middle" x="304" y="-255.05" font-family="Times,serif" font-size="14.00">&gt;</text>
</g>
<!-- la -->
<g id="node9" class="node">
<title>la</title>
<ellipse fill="none" stroke="black" cx="363" cy="-258.75" rx="18" ry="18"/>
<text text-anchor="middle" x="363" y="-255.05" font-family="Times,serif" font-size="14.00">a</text>
</g>
<!-- ls&#45;&gt;la -->
<!-- R -->
<g id="node18" class="node">
<title>R</title>
<polygon fill="none" stroke="black" points="165,-196 109,-196 109,-160 165,-160 165,-196"/>
<text text-anchor="middle" x="137" y="-174.3" font-family="Times,serif" font-size="14.00">Rules</text>
</g>
<!-- ls&#45;&gt;R -->
<g id="edge18" class="edge">
<title>ls&#45;&gt;R</title>
<path fill="none" stroke="black" d="M289.56,-241.02C283.68,-235 276.49,-228.57 269,-224 239.77,-206.16 202.55,-194.3 175.09,-187.25"/>
<polygon fill="black" stroke="black" points="175.62,-183.78 165.08,-184.79 173.95,-190.58 175.62,-183.78"/>
</g>
<!-- lb -->
<g id="node10" class="node">
<title>lb</title>
<ellipse fill="none" stroke="black" cx="417" cy="-258.75" rx="18" ry="18"/>
<text text-anchor="middle" x="417" y="-255.05" font-family="Times,serif" font-size="14.00">b</text>
</g>
<!-- la&#45;&gt;lb -->
<!-- le -->
<g id="node11" class="node">
<title>le</title>
<ellipse fill="none" stroke="black" cx="471" cy="-258.75" rx="18" ry="18"/>
<text text-anchor="middle" x="471" y="-255.05" font-family="Times,serif" font-size="14.00">_</text>
</g>
<!-- lb&#45;&gt;le -->
<!-- ll -->
<g id="node12" class="node">
<title>ll</title>
<ellipse fill="none" stroke="black" cx="528" cy="-258.75" rx="21.4" ry="21.4"/>
<text text-anchor="middle" x="528" y="-255.05" font-family="Times,serif" font-size="14.00">&lt;&#45;</text>
</g>
<!-- le&#45;&gt;ll -->
<!-- lr -->
<g id="node13" class="node">
<title>lr</title>
<ellipse fill="none" stroke="black" cx="589" cy="-258.75" rx="21.4" ry="21.4"/>
<text text-anchor="middle" x="589" y="-255.05" font-family="Times,serif" font-size="14.00">&#45;&gt;</text>
</g>
<!-- ll&#45;&gt;lr -->
<!-- S1 -->
<g id="node14" class="node">
<title>S1</title>
<ellipse fill="none" stroke="black" cx="59" cy="-258.75" rx="22.96" ry="22.96"/>
<ellipse fill="none" stroke="black" cx="59" cy="-258.75" rx="27" ry="27"/>
<text text-anchor="middle" x="59" y="-255.05" font-family="Times,serif" font-size="14.00">S1</text>
</g>
<!-- S2 -->
<g id="node15" class="node">
<title>S2</title>
<ellipse fill="none" stroke="black" cx="126" cy="-258.75" rx="23" ry="23"/>
<text text-anchor="middle" x="126" y="-255.05" font-family="Times,serif" font-size="14.00">S2</text>
</g>
<!-- S1&#45;&gt;S2 -->
<!-- S1&#45;&gt;R -->
<g id="edge19" class="edge">
<title>S1&#45;&gt;R</title>
<path fill="none" stroke="black" d="M77.48,-239.09C88.05,-228.42 101.43,-214.91 112.83,-203.4"/>
<polygon fill="black" stroke="black" points="115.43,-205.75 119.98,-196.18 110.46,-200.82 115.43,-205.75"/>
</g>
<!-- Y -->
<g id="node16" class="node">
<title>Y</title>
<polygon fill="none" stroke="black" points="203,-276.75 167,-276.75 167,-240.75 203,-240.75 203,-276.75"/>
<text text-anchor="middle" x="185" y="-255.05" font-family="Times,serif" font-size="14.00">Y</text>
</g>
<!-- S2&#45;&gt;Y -->
<!-- N -->
<g id="node17" class="node">
<title>N</title>
<polygon fill="none" stroke="black" points="257,-276.75 221,-276.75 221,-240.75 257,-240.75 257,-276.75"/>
<text text-anchor="middle" x="239" y="-255.05" font-family="Times,serif" font-size="14.00">N</text>
</g>
<!-- Y&#45;&gt;N -->
<!-- R&#45;&gt;lr -->
<g id="edge20" class="edge">
<title>R&#45;&gt;lr</title>
<path fill="none" stroke="black" d="M165.03,-179.45C247.66,-181.15 488.76,-189.08 558,-224 562.47,-226.25 566.62,-229.44 570.33,-232.96"/>
<polygon fill="black" stroke="black" points="567.93,-235.53 577.3,-240.48 573.06,-230.77 567.93,-235.53"/>
</g>
<!-- R&#45;&gt;S2 -->
<g id="edge21" class="edge">
<title>R&#45;&gt;S2</title>
<path fill="none" stroke="black" d="M134.61,-196.08C133.41,-204.72 131.9,-215.5 130.49,-225.62"/>
<polygon fill="black" stroke="black" points="126.98,-225.42 129.06,-235.81 133.91,-226.39 126.98,-225.42"/>
</g>
<!-- X -->
<g id="node20" class="node">
<title>X</title>
<text text-anchor="middle" x="137" y="-102.3" font-family="Times,serif" font-size="14.00">(S1, &gt;) ==&gt; (S2, &#45;&gt;)</text>
</g>
<!-- R&#45;&gt;X -->
<!-- Z -->
<g id="node19" class="node">
<title>Z</title>
<ellipse fill="black" stroke="black" cx="34" cy="-106" rx="1.8" ry="1.8"/>
</g>
<!-- Z&#45;&gt;A -->
<g id="edge17" class="edge">
<title>Z&#45;&gt;A</title>
<path fill="none" stroke="black" d="M34,-104.01C34,-99.41 34,-79.64 34,-62.44"/>
<polygon fill="black" stroke="black" points="37.5,-62.21 34,-52.21 30.5,-62.21 37.5,-62.21"/>
</g>
<!-- Z&#45;&gt;X -->
</g>
</svg>
