<?xml version="1.0" encoding="UTF-8" standalone="no"?>
<!DOCTYPE svg PUBLIC "-//W3C//DTD SVG 1.1//EN"
 "http://www.w3.org/Graphics/SVG/1.1/DTD/svg11.dtd">
<!-- Generated by graphviz version 2.43.0 (0)
 -->
<!-- Title: %3 Pages: 1 -->
<svg width="669pt" height="317pt"
 viewBox="0.00 0.00 669.00 317.50" xmlns="http://www.w3.org/2000/svg" xmlns:xlink="http://www.w3.org/1999/xlink">
<g id="graph0" class="graph" transform="scale(1 1) rotate(0) translate(4 313.5)">
<title>%3</title>
<polygon fill="white" stroke="transparent" points="-4,4 -4,-313.5 665,-313.5 665,4 -4,4"/>
<g id="clust1" class="cluster">
<title>clusterTape</title>
<polygon fill="none" stroke="black" points="8,-8 8,-60 384,-60 384,-8 8,-8"/>
</g>
<g id="clust3" class="cluster">
<title>clusterControl</title>
<polygon fill="none" stroke="black" points="43,-80 43,-301.5 653,-301.5 653,-80 43,-80"/>
</g>
<g id="clust4" class="cluster">
<title>clusterStates</title>
<polygon fill="none" stroke="black" points="300,-228.75 300,-288.75 645,-288.75 645,-228.75 300,-228.75"/>
</g>
<g id="clust6" class="cluster">
<title>clusterLetters</title>
<polygon fill="none" stroke="black" points="51,-224 51,-293.5 292,-293.5 292,-224 51,-224"/>
</g>
<!-- A -->
<g id="node1" class="node">
<title>A</title>
<polygon fill="none" stroke="black" points="52,-52 16,-52 16,-16 52,-16 52,-52"/>
<text text-anchor="middle" x="34" y="-30.3" font-family="Times,serif" font-size="14.00">&gt;</text>
</g>
<!-- B -->
<g id="node2" class="node">
<title>B</title>
<polygon fill="none" stroke="black" points="106,-52 70,-52 70,-16 106,-16 106,-52"/>
<text text-anchor="middle" x="88" y="-30.3" font-family="Times,serif" font-size="14.00">b</text>
</g>
<!-- A&#45;&gt;B -->
<!-- C -->
<g id="node3" class="node">
<title>C</title>
<polygon fill="none" stroke="black" points="160,-52 124,-52 124,-16 160,-16 160,-52"/>
<text text-anchor="middle" x="142" y="-30.3" font-family="Times,serif" font-size="14.00">a</text>
</g>
<!-- B&#45;&gt;C -->
<!-- D -->
<g id="node4" class="node">
<title>D</title>
<polygon fill="none" stroke="black" points="214,-52 178,-52 178,-16 214,-16 214,-52"/>
<text text-anchor="middle" x="196" y="-30.3" font-family="Times,serif" font-size="14.00">a</text>
</g>
<!-- C&#45;&gt;D -->
<!-- E -->
<g id="node5" class="node">
<title>E</title>
<polygon fill="none" stroke="black" points="268,-52 232,-52 232,-16 268,-16 268,-52"/>
<text text-anchor="middle" x="250" y="-30.3" font-family="Times,serif" font-size="14.00">_ </text>
</g>
<!-- D&#45;&gt;E -->
<!-- F -->
<g id="node6" class="node">
<title>F</title>
<polygon fill="none" stroke="black" points="322,-52 286,-52 286,-16 322,-16 322,-52"/>
<text text-anchor="middle" x="304" y="-30.3" font-family="Times,serif" font-size="14.00">_ </text>
</g>
<!-- E&#45;&gt;F -->
<!-- G -->
<g id="node7" class="node">
<title>G</title>
<polygon fill="none" stroke="black" points="376,-52 340,-52 340,-16 376,-16 376,-52"/>
<text text-anchor="middle" x="358" y="-30.3" font-family="Times,serif" font-size="14.00">_ </text>
</g>
<!-- F&#45;&gt;G -->
<!-- ls -->
<g id="node8" class="node">
<title>ls</title>
<ellipse fill="none" stroke="black" cx="327" cy="-258.75" rx="18.7" ry="18.7"/>
<text text-anchor="middle" x="327" y="-255.05" font-family="Times,serif" font-size="14.00">&gt;</text>
</g>
<!-- la -->
<g id="node9" class="node">
<title>la</title>
<ellipse fill="none" stroke="black" cx="382" cy="-258.75" rx="18" ry="18"/>
<text text-anchor="middle" x="382" y="-255.05" font-family="Times,serif" font-size="14.00">a</text>
</g>
<!-- ls&#45;&gt;la -->
<!-- lb -->
<g id="node10" class="node">
<title>lb</title>
<ellipse fill="none" stroke="black" cx="440" cy="-258.75" rx="18" ry="18"/>
<ellipse fill="none" stroke="black" cx="440" cy="-258.75" rx="22" ry="22"/>
<text text-anchor="middle" x="440" y="-255.05" font-family="Times,serif" font-size="14.00">b</text>
</g>
<!-- la&#45;&gt;lb -->
<!-- le -->
<g id="node11" class="node">
<title>le</title>
<ellipse fill="none" stroke="black" cx="498" cy="-258.75" rx="18" ry="18"/>
<text text-anchor="middle" x="498" y="-255.05" font-family="Times,serif" font-size="14.00">_</text>
</g>
<!-- lb&#45;&gt;le -->
<!-- R -->
<g id="node18" class="node">
<title>R</title>
<polygon fill="none" stroke="black" points="218,-196 162,-196 162,-160 218,-160 218,-196"/>
<text text-anchor="middle" x="190" y="-174.3" font-family="Times,serif" font-size="14.00">Rules</text>
</g>
<!-- lb&#45;&gt;R -->
<g id="edge18" class="edge">
<title>lb&#45;&gt;R</title>
<path fill="none" stroke="black" d="M427.51,-240.14C422.42,-234.17 416.06,-228 409,-224 351.66,-191.53 274.05,-182.33 228.28,-179.83"/>
<polygon fill="black" stroke="black" points="228.34,-176.32 218.19,-179.35 228.01,-183.32 228.34,-176.32"/>
</g>
<!-- ll -->
<g id="node12" class="node">
<title>ll</title>
<ellipse fill="none" stroke="black" cx="555" cy="-258.75" rx="21.4" ry="21.4"/>
<text text-anchor="middle" x="555" y="-255.05" font-family="Times,serif" font-size="14.00">&lt;&#45;</text>
</g>
<!-- le&#45;&gt;ll -->
<!-- lr -->
<g id="node13" class="node">
<title>lr</title>
<ellipse fill="none" stroke="black" cx="616" cy="-258.75" rx="21.4" ry="21.4"/>
<text text-anchor="middle" x="616" y="-255.05" font-family="Times,serif" font-size="14.00">&#45;&gt;</text>
</g>
<!-- ll&#45;&gt;lr -->
<!-- S1 -->
<g id="node14" class="node">
<title>S1</title>
<ellipse fill="none" stroke="black" cx="86" cy="-258.75" rx="22.96" ry="22.96"/>
<ellipse fill="none" stroke="black" cx="86" cy="-258.75" rx="27" ry="27"/>
<text text-anchor="middle" x="86" y="-255.05" font-family="Times,serif" font-size="14.00">S1</text>
</g>
<!-- S2 -->
<g id="node15" class="node">
<title>S2</title>
<ellipse fill="none" stroke="black" cx="153" cy="-258.75" rx="23" ry="23"/>
<text text-anchor="middle" x="153" y="-255.05" font-family="Times,serif" font-size="14.00">S2</text>
</g>
<!-- S1&#45;&gt;S2 -->
<!-- S1&#45;&gt;R -->
<g id="edge19" class="edge">
<title>S1&#45;&gt;R</title>
<path fill="none" stroke="black" d="M104.29,-238.85C109.51,-233.81 115.32,-228.52 121,-224 131.05,-216 142.55,-208.07 153.23,-201.15"/>
<polygon fill="black" stroke="black" points="155.41,-203.91 161.97,-195.59 151.65,-198 155.41,-203.91"/>
</g>
<!-- Y -->
<g id="node16" class="node">
<title>Y</title>
<polygon fill="none" stroke="black" points="230,-276.75 194,-276.75 194,-240.75 230,-240.75 230,-276.75"/>
<text text-anchor="middle" x="212" y="-255.05" font-family="Times,serif" font-size="14.00">Y</text>
</g>
<!-- S2&#45;&gt;Y -->
<!-- N -->
<g id="node17" class="node">
<title>N</title>
<polygon fill="none" stroke="black" points="284,-276.75 248,-276.75 248,-240.75 284,-240.75 284,-276.75"/>
<text text-anchor="middle" x="266" y="-255.05" font-family="Times,serif" font-size="14.00">N</text>
</g>
<!-- Y&#45;&gt;N -->
<!-- R&#45;&gt;lr -->
<g id="edge20" class="edge">
<title>R&#45;&gt;lr</title>
<path fill="none" stroke="black" d="M218.27,-179.68C297.59,-181.98 520.64,-191.26 585,-224 589.46,-226.27 593.6,-229.46 597.31,-232.99"/>
<polygon fill="black" stroke="black" points="594.92,-235.55 604.28,-240.51 600.05,-230.79 594.92,-235.55"/>
</g>
<!-- R&#45;&gt;S2 -->
<g id="edge21" class="edge">
<title>R&#45;&gt;S2</title>
<path fill="none" stroke="black" d="M181.92,-196.19C177.46,-205.69 171.8,-217.75 166.66,-228.67"/>
<polygon fill="black" stroke="black" points="163.42,-227.34 162.34,-237.88 169.76,-230.31 163.42,-227.34"/>
</g>
<!-- X -->
<g id="node20" class="node">
<title>X</title>
<text text-anchor="middle" x="190" y="-102.3" font-family="Times,serif" font-size="14.00">(S1, b) ==&gt; (S2, &#45;&gt;)</text>
</g>
<!-- R&#45;&gt;X -->
<!-- Z -->
<g id="node19" class="node">
<title>Z</title>
<ellipse fill="black" stroke="black" cx="88" cy="-106" rx="1.8" ry="1.8"/>
</g>
<!-- Z&#45;&gt;B -->
<g id="edge17" class="edge">
<title>Z&#45;&gt;B</title>
<path fill="none" stroke="black" d="M88,-104.01C88,-99.41 88,-79.64 88,-62.44"/>
<polygon fill="black" stroke="black" points="91.5,-62.21 88,-52.21 84.5,-62.21 91.5,-62.21"/>
</g>
<!-- Z&#45;&gt;X -->
</g>
</svg>
